HIERARCHY
ROOT hip
{
	OFFSET 0.000000 0.000000 0.000000 
	CHANNELS 6 Xposition Yposition Zposition Xrotation Zrotation Yrotation
	JOINT abdomen
	{
		OFFSET 0.000000 3.402643 0.000000 
		CHANNELS 3 Xrotation Zrotation Yrotation
		JOINT chest
		{
			OFFSET 0.000000 8.438565 -0.680529 
			CHANNELS 3 Xrotation Zrotation Yrotation
			JOINT neck
			{
				OFFSET 0.000000 10.207942 -0.272212 
				CHANNELS 3 Xrotation Zrotation Yrotation
				JOINT head
				{
					OFFSET 0.000000 3.130431 0.000000 
					CHANNELS 3 Xrotation Zrotation Yrotation
					End Site
					{
						OFFSET 0.000000 3.130435 0.000000 
					}
				}
			}
			JOINT lCollar
			{
				OFFSET 3.470700 6.669187 -0.816635 
				CHANNELS 3 Yrotation Zrotation Xrotation
				JOINT lShldr
				{
					OFFSET 3.198488 0.000000 0.000000 
					CHANNELS 3 Zrotation Yrotation Xrotation
					JOINT lForeArm
					{
						OFFSET 10.139888 0.000000 0.000000 
						CHANNELS 3 Yrotation Zrotation Xrotation
						JOINT lHand
						{
							OFFSET 8.370511 0.000000 0.000000 
							CHANNELS 3 Zrotation Yrotation Xrotation
							End Site
							{
								OFFSET 4.083176 0.000000 0.000000 
							}
						}
					}
				}
			}
			JOINT rCollar
			{
				OFFSET -3.470700 6.669187 -0.816635 
				CHANNELS 3 Yrotation Zrotation Xrotation
				JOINT rShldr
				{
					OFFSET -3.198488 0.000000 0.000000 
					CHANNELS 3 Zrotation Yrotation Xrotation
					JOINT rForeArm
					{
						OFFSET -10.139888 0.000000 0.000000 
						CHANNELS 3 Yrotation Zrotation Xrotation
						JOINT rHand
						{
							OFFSET -8.370511 0.000000 0.000000 
							CHANNELS 3 Zrotation Yrotation Xrotation
							End Site
							{
								OFFSET -4.083176 0.000000 0.000000 
							}
						}
					}
				}
			}
		}
	}
	JOINT lThigh
	{
		OFFSET 5.308129 -1.633274 1.361059 
		CHANNELS 3 Xrotation Zrotation Yrotation
		JOINT lShin
		{
			OFFSET -2.041588 -20.007561 0.000000 
			CHANNELS 3 Xrotation Zrotation Yrotation
			JOINT lFoot
			{
				OFFSET 0.000000 -19.190928 -1.224953 
				CHANNELS 3 Xrotation Yrotation Zrotation
				End Site
				{
					OFFSET 0.000000 -2.449906 4.627600 
				}
			}
		}
	}
	JOINT rThigh
	{
		OFFSET -5.308129 -1.633274 1.361059 
		CHANNELS 3 Xrotation Zrotation Yrotation
		JOINT rShin
		{
			OFFSET 2.041588 -20.007561 0.000000 
			CHANNELS 3 Xrotation Zrotation Yrotation
			JOINT rFoot
			{
				OFFSET 0.000000 -19.190928 -1.224953 
				CHANNELS 3 Xrotation Yrotation Zrotation
				End Site
				{
					OFFSET 0.000000 -2.449906 4.627600 
				}
			}
		}
	}
}
MOTION
Frames: 16
Frame Time: 0.033333
5.979770 50.820530 94.331261 4.746094 2.451172 -3.330078 19.465004 -10.747630 -15.854756 -23.144531 13.632813 5.986328 51.063168 8.107644 2.471410 -53.105473 -2.304688 9.404298 2.000000 -2.000000 0.000000 -79.169922 2.021484 2.197266 -49.345871 -2.000555 -1.982486 27.651711 32.726803 23.329767 -2.000000 2.000000 0.000000 84.853516 -26.601561 7.173363 77.964455 0.830652 -2.892104 -39.156296 -42.930332 36.335667 5.686783 9.320534 24.827965 31.120535 -4.494436 -2.797505 28.467056 2.976677 -3.414309 -23.454657 -10.248180 -41.485645 22.115343 4.745257 2.016945 -6.472781 -7.661058 -0.469900 
5.805359 50.206047 95.405220 3.339844 2.792969 -2.997571 21.621677 -12.612857 -12.792753 -24.414064 13.505859 6.191407 51.063168 8.107644 2.471410 -54.140629 -2.021484 4.501953 2.000000 -2.000000 0.000000 -79.990234 5.859375 1.992188 -50.225044 -1.864069 -1.990447 27.649807 32.775600 23.359070 -2.000000 2.000000 0.000000 85.615234 -23.906250 5.478516 77.072350 0.686818 -2.773306 -40.579163 -42.408688 36.314339 0.331023 11.941276 24.400978 39.937397 -4.125490 -3.422702 33.332024 4.269759 -2.208214 -20.759432 -10.686491 -41.619587 22.295721 4.796803 2.012120 -4.543140 -8.326933 -0.779871 
5.469594 50.529037 96.512650 1.572266 3.154297 -2.548828 25.199812 -14.644151 -9.045645 -25.166016 13.017579 6.337892 51.063168 8.107644 2.471410 -58.007813 -1.865234 -0.800781 2.000000 -2.000000 0.000000 -81.142578 7.802735 2.148437 -50.752972 -1.835959 -2.011643 27.554230 33.290829 23.547165 -2.000000 2.000000 0.000000 85.595703 -19.277344 2.233106 76.192337 0.704056 -2.733196 -42.112865 -42.078926 37.116425 -6.493799 14.601892 23.057478 51.010136 -3.744266 -3.975824 34.711800 8.200024 -3.715933 -17.460546 -11.228534 -42.681583 22.472004 4.734588 1.898760 -5.413383 -8.544059 -1.015864 
5.119074 50.828407 97.498093 -0.205078 3.496096 -2.313856 30.002211 -17.536652 -4.686298 -25.722656 12.675782 6.533205 51.063168 8.107644 2.471410 -64.755859 -2.304688 -7.392578 2.000000 -2.000000 0.000000 -82.392578 8.886718 2.314453 -51.104813 -1.826779 -2.021958 26.684929 34.576550 23.113947 -2.000000 2.000000 0.000000 84.550781 -14.052734 -2.404713 75.146584 0.741356 -2.701704 -43.053116 -42.058811 37.303490 -14.052631 17.030790 21.729147 62.201618 -2.417596 -4.539795 33.059124 12.236173 -5.599806 -14.267194 -11.302391 -43.705688 22.304714 4.745857 2.042762 -5.928523 -8.473847 -2.123730 
4.706299 51.096260 98.378593 -2.128906 3.857422 -1.923828 35.359024 -20.899099 -0.223590 -26.269533 12.158203 6.738281 51.063168 8.107644 2.471410 -73.066406 -3.769531 -14.277344 2.000000 -2.000000 0.000000 -83.300781 9.394531 1.943360 -51.809856 -1.938567 -2.093666 25.829052 35.081631 23.000576 -2.000000 2.000000 0.000000 82.197266 -8.603516 -7.597655 74.090790 0.758592 -2.661464 -44.012440 -42.167339 37.786304 -21.669136 18.953650 20.004759 72.228767 -2.106040 -5.068721 30.677586 16.309998 -7.983807 -11.074562 -11.284828 -44.553963 22.136959 4.737213 2.017117 -6.598988 -8.271941 -3.187293 
4.241567 51.277458 99.211632 -3.720703 4.199219 -1.503191 40.503960 -24.427654 3.929207 -26.640625 11.640625 6.982423 51.063168 8.107644 2.471410 -80.312500 -5.996093 -20.069380 2.000000 -2.000000 0.000000 -84.511719 9.707030 0.312500 -52.865662 -1.911593 -2.134354 25.960087 34.850544 23.586647 -2.000000 2.000000 0.000000 78.115234 -4.169922 -11.835938 73.035004 0.785577 -2.620786 -43.821316 -43.411346 37.905273 -28.551134 20.287933 19.494833 79.756340 -1.248459 -5.111944 28.653145 18.329218 -9.292062 -8.447366 -11.406662 -45.178558 22.334599 4.744586 2.054651 -7.497458 -9.077021 -3.632778 
3.706245 51.371986 100.111458 -5.126953 4.541016 -1.298055 44.892643 -27.979460 7.459603 -26.835936 11.298828 7.111289 51.063168 8.107644 2.471410 -85.390625 -8.320312 -24.386179 2.000000 -2.000000 0.000000 -86.367188 11.396484 -2.255859 -54.084858 -1.556080 -2.076862 26.023558 34.422291 24.234598 -2.000000 2.000000 0.000000 72.275391 -1.240234 -14.716797 71.627640 0.822309 -2.579542 -42.310028 -45.529984 37.835762 -35.279995 21.050768 20.089985 83.942146 -0.897854 -5.155767 27.194853 18.863054 -9.016618 -6.182663 -11.149107 -44.900288 23.026955 4.708215 1.909506 -8.492357 -9.739285 -3.393345 
3.183514 51.466530 101.114624 -6.005859 4.541016 -1.180867 47.990379 -30.833437 10.263349 -26.845703 10.947266 7.441407 51.063168 8.107644 2.471410 -88.603516 -10.429687 -27.402344 2.000000 -2.000000 0.000000 -88.525391 13.486329 -4.960937 -55.319893 -1.350689 -2.245301 26.454849 33.720383 25.091009 -2.000000 2.000000 0.000000 66.708984 0.214844 -16.376953 70.225418 0.869793 -2.723610 -40.935947 -47.851437 38.077766 -41.865215 21.835997 22.031685 85.505081 -0.566430 -5.189680 24.378565 17.955107 -7.834626 -4.102831 -10.944903 -44.407066 23.758865 4.679097 1.993032 -10.105247 -10.973084 -3.140840 
2.711862 51.584702 102.316460 -6.357422 4.541016 -1.034383 48.745995 -32.603886 12.506190 -26.845703 10.947266 7.617188 51.063168 8.107644 2.471410 -89.306641 -11.718749 -29.208982 2.000000 -2.000000 0.000000 -90.166016 16.279295 -7.197265 -55.842499 -1.311216 -2.071590 26.124735 33.741009 25.282736 -2.000000 2.000000 0.000000 62.773441 1.689453 -17.236036 67.769905 1.134284 -2.561445 -40.042675 -49.801914 38.162308 -46.953388 22.305319 24.503065 84.855026 -0.797017 -4.987437 21.138651 16.130579 -6.392015 -2.728853 -10.578278 -43.671329 23.916573 4.497925 2.098098 -11.351156 -11.633438 -2.830542 
2.329623 51.710754 103.661316 -6.191407 4.541016 -0.849609 47.596779 -33.259098 13.913612 -26.474611 11.113282 7.871093 51.063168 8.107644 2.471410 -88.134766 -12.167968 -30.048830 2.000000 -2.000000 0.000000 -90.917969 18.769533 -8.532013 -55.843899 -1.451113 -2.122100 26.068983 34.706825 25.847641 -2.000000 2.000000 0.000000 61.113281 3.857422 -17.011059 64.075119 1.254225 -2.437148 -39.447937 -50.414486 38.097195 -49.467480 22.463957 26.771030 81.464600 -0.926544 -4.975005 18.429617 14.873979 -4.810944 -1.537039 -9.662091 -42.654629 23.747789 4.585761 1.634189 -11.975369 -12.184754 -2.031166 
1.989183 51.805283 105.036377 -5.488281 4.189453 -0.751240 44.950741 -32.975742 14.935220 -25.937502 11.269531 8.164063 51.063168 8.107644 2.471410 -85.849609 -11.982420 -30.156252 2.000000 -2.000000 0.000000 -90.390625 21.289063 -8.544922 -55.138554 -1.329009 -2.041216 25.339254 36.573700 25.633589 -2.000000 2.000000 0.000000 61.152344 6.914062 -16.113281 59.326000 1.091435 -2.329063 -39.163815 -50.100124 38.075790 -48.803383 22.434000 28.259432 75.849068 -1.423910 -5.033240 15.468295 13.886314 -3.881924 -0.511912 -8.909827 -42.574158 23.018431 4.240388 1.667695 -12.203963 -12.448868 -1.234157 
1.702714 51.899826 106.435303 -4.423828 3.837891 -0.830078 41.364883 -32.111565 15.427543 -25.029297 11.601563 8.537121 51.063168 8.107644 2.471410 -82.802734 -11.601563 -29.679695 2.000000 -2.000000 0.000000 -89.775391 23.613281 -8.417969 -54.436729 -1.527401 -2.088314 25.347652 38.215382 26.458021 -2.000000 2.000000 0.000000 62.197266 9.726563 -14.744444 54.728237 0.851109 -2.401860 -39.922775 -49.601501 39.155609 -45.751137 22.118177 29.566160 68.039185 -2.632694 -4.873171 11.922030 12.612793 -2.393845 0.346244 -7.844152 -42.233437 22.157743 4.269415 1.916742 -12.808066 -12.432290 -1.014086 
1.482387 51.970726 107.878311 -3.017578 3.496094 -0.722656 37.129059 -30.501522 15.635301 -24.287109 12.109375 8.906251 51.063168 8.107644 2.471410 -79.541016 -10.859374 -28.779295 2.000000 -2.000000 0.000000 -89.619141 25.693359 -8.482094 -54.084175 -1.486131 -2.051607 24.826151 39.081532 26.306829 -2.000000 2.000000 0.000000 62.988285 12.197267 -12.810434 51.423176 1.330623 -2.236920 -39.567074 -49.744072 39.302620 -41.181831 20.938072 31.175341 57.457279 -2.951916 -4.483066 9.604842 11.106860 -1.532031 1.030931 -7.084879 -41.556786 21.271023 4.425890 1.884779 -13.459949 -12.770038 -0.273528 
1.340055 51.986488 109.372093 -1.611328 2.978516 -0.800274 32.811054 -28.766592 15.230965 -23.378908 12.597656 9.150391 51.063168 8.107644 2.471410 -75.966797 -10.224607 -27.578127 2.000000 -2.000000 0.000000 -89.892578 26.181641 -8.804285 -53.911995 -1.386278 -2.184554 24.346495 39.177086 25.821970 -2.000000 2.000000 0.000000 63.164066 13.222657 -9.450890 49.311855 1.385142 -2.165299 -37.981167 -50.798283 38.539108 -35.917824 18.535170 32.592941 44.818665 -3.834668 -3.621748 8.895038 9.276236 -0.524744 1.723991 -6.049566 -41.531914 20.040884 4.464886 1.589951 -13.733286 -12.626211 0.197461 
1.272777 51.962852 110.910210 0.000000 2.460938 -0.908203 28.292469 -27.004213 14.555244 -22.460939 12.900392 9.394530 51.063168 8.107644 2.471410 -72.597656 -9.453123 -26.220707 2.000000 -2.000000 0.000000 -90.312500 25.244141 -8.794662 -54.088055 -1.377097 -2.194869 24.612932 38.822174 25.742754 -2.000000 2.000000 0.000000 62.529297 14.140624 -6.787109 48.081432 1.510899 -1.805695 -35.885998 -52.325031 37.422493 -28.297848 12.612115 33.585705 24.238888 -4.786800 -2.287232 12.446568 6.787365 0.659799 2.753074 -4.951355 -40.967720 18.449230 4.882666 1.709545 -14.162703 -12.399389 0.905600 
1.306103 51.923466 112.505150 1.572266 2.089844 -0.830078 24.439707 -25.225533 13.600301 -21.894531 13.398438 9.599609 51.063168 8.107644 2.471410 -69.267578 -8.925781 -24.806202 2.000000 -2.000000 0.000000 -90.673828 23.750000 -8.374970 -54.447601 -1.666729 -2.129079 24.836025 37.928848 25.655127 -2.000000 2.000000 0.000000 62.119144 14.374999 -3.571794 47.553295 1.518938 -1.775890 -33.808876 -53.836315 35.968601 -19.361908 4.624898 33.492290 -0.981380 -5.286880 -0.124798 18.348259 4.306712 2.655094 3.456809 -4.141342 -40.938694 17.067167 4.744857 1.606880 -14.152423 -12.214507 1.071096 
